<svg width="16" height="16" viewBox="0 0 16 16" fill="none" xmlns="http://www.w3.org/2000/svg">
<path fill-rule="evenodd" clip-rule="evenodd" d="M4.56071 1.37921C2.81862 1.37921 1.40137 2.79647 1.40137 4.53846V11.3809C1.40137 13.123 2.81862 14.5403 4.56071 14.5403H11.403C13.1452 14.5403 14.5624 13.123 14.5624 11.3809V4.53846C14.5624 2.79647 13.1452 1.37921 11.403 1.37921H4.56071ZM11.403 15.9017H4.56071C2.06783 15.9017 0.039856 13.8738 0.039856 11.3809V4.53846C0.039856 2.04578 2.06783 0.0177002 4.56071 0.0177002H11.403C13.8959 0.0177002 15.9239 2.04578 15.9239 4.53846V11.3809C15.9239 13.8738 13.8959 15.9017 11.403 15.9017Z" fill="#9EA0A3"/>
<path fill-rule="evenodd" clip-rule="evenodd" d="M7.98187 5.25425C6.49005 5.25425 5.27637 6.46783 5.27637 7.95966C5.27637 9.45158 6.49005 10.6653 7.98187 10.6653C9.4738 10.6653 10.6874 9.45158 10.6874 7.95966C10.6874 6.46783 9.4738 5.25425 7.98187 5.25425ZM7.98187 12.0267C5.73936 12.0267 3.91486 10.2024 3.91486 7.95966C3.91486 5.71714 5.73936 3.89264 7.98187 3.89264C10.2244 3.89264 12.0489 5.71714 12.0489 7.95966C12.0489 10.2024 10.2244 12.0267 7.98187 12.0267Z" fill="#9EA0A3"/>
<path fill-rule="evenodd" clip-rule="evenodd" d="M13.2009 3.66C13.2009 4.19988 12.7633 4.63741 12.2235 4.63741C11.6836 4.63741 11.246 4.19988 11.246 3.66C11.246 3.12013 11.6836 2.6825 12.2235 2.6825C12.7633 2.6825 13.2009 3.12013 13.2009 3.66Z" fill="#9EA0A3"/>
</svg>
