<svg width="136" height="25" viewBox="0 0 136 25" fill="none" xmlns="http://www.w3.org/2000/svg">
<path fill-rule="evenodd" clip-rule="evenodd" d="M2.53029 5.3778C5.03486 1.78536 11.6559 -1.66664 15.5559 1.70536C15.7899 1.90758 15.5764 2.2498 15.3296 2.27247C13.0444 2.48625 11.0447 2.08936 8.832 3.12269C6.94972 4.00269 5.41029 5.48535 4.36929 7.32713C1.98429 11.5494 2.31729 17.0854 6.83572 19.4627C14.3644 23.424 24.0116 16.6302 21.0647 7.65469C20.838 6.96313 21.7821 6.65336 22.1344 7.1867C22.9646 8.44403 23.5457 9.22536 23.7553 10.7929C23.9259 12.0707 23.8663 13.3654 23.6203 14.6289C23.1064 17.2716 21.714 19.7147 19.6539 21.3631C15.2743 24.8689 8.57744 24.7716 4.12587 21.4516C-0.887133 17.712 -0.911571 10.3147 2.53029 5.3778ZM22.3162 0.847137C23.0927 0.563582 23.5997 1.52713 23.2997 2.1738C22.1529 4.64491 20.0503 6.31469 18.2949 8.3218C16.3431 10.5529 14.6559 13.024 13.5793 15.8369C13.1293 17.0116 11.7844 17.5587 10.821 16.592C8.91729 14.6818 6.75986 12.4236 5.913 9.76492C5.50243 8.47558 7.05514 7.88403 7.89257 8.56936C9.22843 9.66225 10.359 11.0658 11.5251 12.4111C12.5529 10.3862 13.8081 8.52091 15.2773 6.7578C17.2513 4.38891 19.4237 1.90358 22.3162 0.847137Z" fill="#FF5C70"/>
<path d="M48.464 3.648H44L40.34 10.248L36.62 3.648H32.204L38.264 13.74V21H42.356V13.74L48.464 3.648ZM51.5356 21.24C55.3636 21.24 57.6916 18.588 57.6916 14.868C57.6916 11.004 55.3276 8.352 51.5596 8.352C47.8636 8.352 45.3916 10.968 45.3916 14.868C45.3916 18.696 47.7916 21.24 51.5356 21.24ZM51.5596 18.24C49.8076 18.24 49.3756 16.356 49.3756 14.736C49.3756 13.008 49.8676 11.304 51.5596 11.304C53.2756 11.304 53.7076 13.08 53.7076 14.736C53.7076 16.428 53.2156 18.24 51.5596 18.24ZM72.5456 3.648H68.6576L64.3376 16.236L60.0056 3.648H56.1296L62.0576 21H66.6056L72.5456 3.648ZM77.015 21.24C80.843 21.24 83.171 18.588 83.171 14.868C83.171 11.004 80.807 8.352 77.039 8.352C73.343 8.352 70.871 10.968 70.871 14.868C70.871 18.696 73.271 21.24 77.015 21.24ZM77.039 18.24C75.287 18.24 74.855 16.356 74.855 14.736C74.855 13.008 75.347 11.304 77.039 11.304C78.755 11.304 79.187 13.08 79.187 14.736C79.187 16.428 78.695 18.24 77.039 18.24ZM91.5922 11.388V8.568H88.8682V4.788H85.9762L84.9322 8.592H82.7722V11.388H84.7882V17.688C84.7882 19.68 85.7002 21.156 89.2882 21.156C90.6442 21.156 91.2802 20.976 91.6162 20.82V18.36H89.8042C89.2162 18.36 88.8802 18.24 88.8802 17.508L88.8682 11.388H91.5922ZM97.5959 21.24C101.424 21.24 103.752 18.588 103.752 14.868C103.752 11.004 101.388 8.352 97.6199 8.352C93.9239 8.352 91.4519 10.968 91.4519 14.868C91.4519 18.696 93.8519 21.24 97.5959 21.24ZM97.6199 18.24C95.8679 18.24 95.4359 16.356 95.4359 14.736C95.4359 13.008 95.9279 11.304 97.6199 11.304C99.3359 11.304 99.7679 13.08 99.7679 14.736C99.7679 16.428 99.2759 18.24 97.6199 18.24ZM104.258 21H108.638V16.74H104.258V21ZM109.995 24.864H114.075V19.308C114.819 20.532 116.115 21.24 117.423 21.24C120.207 21.24 122.523 19.344 122.523 14.724C122.523 10.368 120.531 8.352 117.843 8.352C116.415 8.352 114.939 8.988 114.099 10.2L114.087 8.592H109.995V24.864ZM116.391 18.288C114.795 18.288 114.075 16.548 114.075 14.748C114.075 12.816 114.795 11.268 116.391 11.268C117.711 11.268 118.719 12.54 118.719 14.748C118.719 17.232 117.663 18.288 116.391 18.288ZM126.814 15.732H134.89V14.712C134.89 11.016 132.874 8.352 128.95 8.352C125.062 8.352 122.794 11.304 122.794 14.94C122.794 18.756 125.362 21.24 129.142 21.24C131.806 21.24 134.506 19.62 134.914 16.92H131.266C130.906 17.988 130.066 18.348 129.034 18.348C127.702 18.348 126.802 17.424 126.814 15.732ZM126.802 13.38C126.802 12.228 127.666 11.148 128.95 11.148C130.378 11.148 131.098 12.156 131.098 13.38H126.802Z" fill="#FF5C70"/>
</svg>
