<svg viewBox="0 0 157 25" fill="none" xmlns="http://www.w3.org/2000/svg">
<path fill-rule="evenodd" clip-rule="evenodd" d="M2.53029 5.3778C5.03486 1.78536 11.6559 -1.66664 15.5559 1.70536C15.7899 1.90758 15.5764 2.2498 15.3296 2.27247C13.0444 2.48625 11.0447 2.08936 8.832 3.12269C6.94972 4.00269 5.41029 5.48535 4.36929 7.32713C1.98429 11.5494 2.31729 17.0854 6.83572 19.4627C14.3644 23.424 24.0116 16.6302 21.0647 7.65469C20.838 6.96313 21.7821 6.65336 22.1344 7.1867C22.9646 8.44403 23.5457 9.22536 23.7553 10.7929C23.9259 12.0707 23.8663 13.3654 23.6203 14.6289C23.1064 17.2716 21.714 19.7147 19.6539 21.3631C15.2743 24.8689 8.57744 24.7716 4.12587 21.4516C-0.887133 17.712 -0.911571 10.3147 2.53029 5.3778ZM22.3162 0.847137C23.0927 0.563582 23.5997 1.52713 23.2997 2.1738C22.1529 4.64491 20.0503 6.31469 18.2949 8.3218C16.3431 10.5529 14.6559 13.024 13.5793 15.8369C13.1293 17.0116 11.7844 17.5587 10.821 16.592C8.91729 14.6818 6.75986 12.4236 5.913 9.76492C5.50243 8.47558 7.05514 7.88403 7.89257 8.56936C9.22843 9.66225 10.359 11.0658 11.5251 12.4111C12.5529 10.3862 13.8081 8.52091 15.2773 6.7578C17.2513 4.38891 19.4237 1.90358 22.3162 0.847137Z" fill="#FF5C70"/>
<path d="M48.824 3.648H44.936L40.616 16.236L36.284 3.648H32.408L38.336 21H42.884L48.824 3.648ZM53.2934 21.24C57.1214 21.24 59.4494 18.588 59.4494 14.868C59.4494 11.004 57.0854 8.352 53.3174 8.352C49.6214 8.352 47.1494 10.968 47.1494 14.868C47.1494 18.696 49.5494 21.24 53.2934 21.24ZM53.3174 18.24C51.5654 18.24 51.1334 16.356 51.1334 14.736C51.1334 13.008 51.6254 11.304 53.3174 11.304C55.0334 11.304 55.4654 13.08 55.4654 14.736C55.4654 16.428 54.9734 18.24 53.3174 18.24ZM67.8706 11.388V8.568H65.1466V4.788H62.2546L61.2106 8.592H59.0506V11.388H61.0666V17.688C61.0666 19.68 61.9786 21.156 65.5666 21.156C66.9226 21.156 67.5586 20.976 67.8946 20.82V18.36H66.0826C65.4946 18.36 65.1586 18.24 65.1586 17.508L65.1466 11.388H67.8706ZM71.8344 15.732H79.9104V14.712C79.9104 11.016 77.8944 8.352 73.9704 8.352C70.0824 8.352 67.8144 11.304 67.8144 14.94C67.8144 18.756 70.3824 21.24 74.1624 21.24C76.8264 21.24 79.5264 19.62 79.9344 16.92H76.2864C75.9264 17.988 75.0864 18.348 74.0544 18.348C72.7224 18.348 71.8224 17.424 71.8344 15.732ZM71.8224 13.38C71.8224 12.228 72.6864 11.148 73.9704 11.148C75.3984 11.148 76.1184 12.156 76.1184 13.38H71.8224ZM80.7522 21H84.8322V13.224C84.8322 12.18 85.7802 11.652 86.6082 11.652C87.4242 11.652 88.3242 12.192 88.3242 13.164V21H92.4042V13.224C92.4042 12.144 93.3762 11.652 94.1802 11.652C95.0322 11.652 95.9202 12.156 95.9202 13.32V21H100.012V12.78C100.012 9.576 97.8282 8.352 95.9562 8.352C94.3602 8.352 93.0162 9.228 92.2122 10.32C91.4322 9.036 89.9922 8.352 88.7562 8.352C86.8242 8.352 85.5402 9.24 84.7602 10.332V8.592H80.7522V21ZM106.737 21.24C110.565 21.24 112.893 18.588 112.893 14.868C112.893 11.004 110.529 8.352 106.761 8.352C103.065 8.352 100.593 10.968 100.593 14.868C100.593 18.696 102.993 21.24 106.737 21.24ZM106.761 18.24C105.009 18.24 104.577 16.356 104.577 14.736C104.577 13.008 105.069 11.304 106.761 11.304C108.477 11.304 108.909 13.08 108.909 14.736C108.909 16.428 108.417 18.24 106.761 18.24ZM118.823 21.24C121.955 21.24 124.247 19.824 124.247 17.256C124.247 16.176 123.683 14.22 120.707 13.5L118.895 13.128C117.563 12.888 116.987 12.6 116.987 12.06C116.987 11.376 117.767 11.028 118.799 11.028C119.819 11.028 120.599 11.472 120.779 12.324H124.139C124.127 9.852 122.075 8.352 118.847 8.352C115.343 8.352 113.411 10.104 113.435 12.384C113.447 14.52 114.959 15.6 117.251 16.044L119.255 16.416C120.383 16.608 120.791 16.92 120.791 17.484C120.791 18.18 119.987 18.504 118.799 18.504C118.115 18.504 116.867 18.216 116.555 16.956H113.051C113.543 20.004 116.231 21.24 118.823 21.24ZM124.802 21H129.182V16.74H124.802V21ZM130.539 24.864H134.619V19.308C135.363 20.532 136.659 21.24 137.967 21.24C140.751 21.24 143.067 19.344 143.067 14.724C143.067 10.368 141.075 8.352 138.387 8.352C136.959 8.352 135.483 8.988 134.643 10.2L134.631 8.592H130.539V24.864ZM136.935 18.288C135.339 18.288 134.619 16.548 134.619 14.748C134.619 12.816 135.339 11.268 136.935 11.268C138.255 11.268 139.263 12.54 139.263 14.748C139.263 17.232 138.207 18.288 136.935 18.288ZM147.358 15.732H155.434V14.712C155.434 11.016 153.418 8.352 149.494 8.352C145.606 8.352 143.338 11.304 143.338 14.94C143.338 18.756 145.906 21.24 149.686 21.24C152.35 21.24 155.05 19.62 155.458 16.92H151.81C151.45 17.988 150.61 18.348 149.578 18.348C148.246 18.348 147.346 17.424 147.358 15.732ZM147.346 13.38C147.346 12.228 148.21 11.148 149.494 11.148C150.922 11.148 151.642 12.156 151.642 13.38H147.346Z" fill="#FF5C70"/>
</svg>
