<svg width="120" height="40" viewBox="0 0 120 40" fill="none" xmlns="http://www.w3.org/2000/svg">
<g clip-path="url(#clip0)">
<path d="M63.4153 14.7981C63.1136 14.793 62.8143 14.8521 62.5372 14.9715C62.2602 15.0909 62.0116 15.2678 61.8081 15.4905C61.3415 16.0451 61.1085 16.7593 61.1584 17.4824C61.1058 18.2058 61.3391 18.921 61.8081 19.4743C62.0134 19.6942 62.2625 19.8686 62.5393 19.9864C62.8161 20.1042 63.1145 20.1627 63.4153 20.1582C63.7151 20.1648 64.0129 20.1071 64.2886 19.9892C64.5643 19.8712 64.8116 19.6957 65.0139 19.4743C65.4767 18.9179 65.7064 18.2042 65.6551 17.4824C65.7037 16.7609 65.4743 16.0482 65.0139 15.4905C64.8131 15.2667 64.5663 15.0889 64.2903 14.9694C64.0144 14.8499 63.7159 14.7914 63.4153 14.7981Z" fill="#F34C60"/>
<path d="M82.3338 14.798C82.032 14.7919 81.7324 14.8505 81.4551 14.9699C81.1779 15.0894 80.9295 15.2669 80.7267 15.4905C80.257 16.0438 80.0209 16.7581 80.0684 17.4824C80.0182 18.207 80.2546 18.9223 80.7267 19.4743C80.9341 19.6902 81.183 19.862 81.4584 19.9793C81.7339 20.0966 82.0302 20.1571 82.3296 20.1571C82.629 20.1571 82.9253 20.0966 83.2007 19.9793C83.4762 19.862 83.7251 19.6902 83.9325 19.4743C84.3952 18.9179 84.625 18.2042 84.5736 17.4824C84.6223 16.7609 84.3929 16.0481 83.9325 15.4905C83.7313 15.2671 83.4844 15.0897 83.2086 14.9702C82.9327 14.8507 82.6344 14.792 82.3338 14.798Z" fill="#F34C60"/>
<path d="M38.3672 14.798C38.0654 14.7919 37.7658 14.8505 37.4885 14.9699C37.2113 15.0894 36.9629 15.2669 36.7601 15.4905C36.2904 16.0438 36.0543 16.7581 36.1018 17.4824C36.0516 18.207 36.288 18.9223 36.7601 19.4743C36.9675 19.6902 37.2164 19.862 37.4918 19.9793C37.7673 20.0966 38.0636 20.1571 38.363 20.1571C38.6624 20.1571 38.9587 20.0966 39.2341 19.9793C39.5096 19.862 39.7584 19.6902 39.9659 19.4743C40.4286 18.9179 40.6583 18.2042 40.607 17.4824C40.6557 16.7609 40.4263 16.0481 39.9659 15.4905C39.764 15.268 39.517 15.0911 39.2413 14.9717C38.9656 14.8523 38.6676 14.7931 38.3672 14.798Z" fill="#F34C60"/>
<path d="M98.4399 14.8322C98.1201 14.8229 97.8021 14.8821 97.5072 15.006C97.2123 15.1299 96.9473 15.3155 96.7301 15.5503C96.2579 16.0794 96.015 16.7743 96.0548 17.4823C96.0168 18.1901 96.2595 18.8843 96.7301 19.4144C97.187 19.8613 97.8007 20.1116 98.4399 20.1116C99.079 20.1116 99.6928 19.8613 100.15 19.4144C100.612 18.8742 100.845 18.1748 100.799 17.4652C100.842 16.756 100.61 16.0576 100.15 15.5161C99.9284 15.2888 99.6619 15.1104 99.3674 14.9926C99.0729 14.8748 98.7569 14.8201 98.4399 14.8322Z" fill="#F34C60"/>
<path d="M115.486 0H-6.27273e-05V23.6033C-6.27273e-05 23.7145 -6.27273e-05 23.8342 -6.27273e-05 23.9453V25.3986C-0.0232918 27.4445 0.693166 29.4299 2.01746 30.9895L9.24978 39.5384C9.42852 39.7533 9.66881 39.9083 9.93831 39.9825C10.2078 40.0567 10.4936 40.0465 10.7571 39.9534C11.0207 39.8603 11.2494 39.6886 11.4124 39.4616C11.5755 39.2345 11.6651 38.963 11.6691 38.6835L11.8999 30.28H119.684V4.19748C119.684 3.08424 119.241 2.01659 118.454 1.22941C117.667 0.442233 116.599 0 115.486 0V0ZM19.5768 13.4388C19.5746 13.4994 19.5604 13.559 19.5352 13.6142C19.5099 13.6693 19.474 13.719 19.4296 13.7603C19.3851 13.8016 19.3329 13.8337 19.276 13.8548C19.2192 13.8759 19.1587 13.8856 19.098 13.8833H17.3113L17.0378 17.3028H18.7475C18.8135 17.3001 18.8794 17.3108 18.9411 17.3344C19.0028 17.3579 19.0591 17.3937 19.1066 17.4396C19.1504 17.4913 19.1835 17.5512 19.2041 17.6157C19.2246 17.6803 19.2321 17.7483 19.2263 17.8158L19.0296 20.1667C19.0286 20.2277 19.0152 20.2879 18.9904 20.3436C18.9655 20.3993 18.9296 20.4494 18.8849 20.4909C18.8402 20.5324 18.7876 20.5645 18.7302 20.5852C18.6728 20.6058 18.6118 20.6147 18.5509 20.6112H16.7557L16.3453 25.8175C16.3387 25.9384 16.2848 26.0519 16.1952 26.1335C16.1056 26.215 15.9876 26.2581 15.8666 26.2535H13.5327C13.4667 26.2562 13.4009 26.2455 13.3392 26.222C13.2774 26.1985 13.2211 26.1626 13.1737 26.1167C13.1281 26.0661 13.0939 26.0064 13.0733 25.9415C13.0526 25.8767 13.0461 25.8081 13.054 25.7405L13.1053 25.2276L13.4644 20.6112H9.40366L8.99331 25.8175C8.98667 25.9384 8.93276 26.0519 8.8432 26.1335C8.75364 26.215 8.63562 26.2581 8.51458 26.2535H6.1551C6.0891 26.2562 6.02325 26.2455 5.96152 26.222C5.8998 26.1985 5.8435 26.1626 5.79605 26.1167C5.74901 26.0671 5.71382 26.0075 5.69309 25.9423C5.67236 25.8772 5.66665 25.8082 5.67636 25.7405V25.2362L6.04396 20.6112H4.56502C4.49815 20.6151 4.43126 20.604 4.36918 20.5789C4.30709 20.5538 4.25135 20.5152 4.20596 20.4659C4.15796 20.4188 4.12201 20.3607 4.10118 20.2967C4.08035 20.2328 4.07524 20.1647 4.08628 20.0983L4.27435 17.7217C4.28099 17.6008 4.33491 17.4873 4.42446 17.4057C4.51402 17.3242 4.63205 17.2811 4.75309 17.2857H6.35172L6.60819 13.8662H5.12924C5.06237 13.87 4.99548 13.859 4.9334 13.8338C4.87131 13.8087 4.81557 13.7701 4.77019 13.7209C4.72578 13.6713 4.6922 13.613 4.67159 13.5497C4.65098 13.4864 4.6438 13.4195 4.6505 13.3533L4.83003 11.0024C4.83108 10.9414 4.84444 10.8812 4.86931 10.8255C4.89418 10.7698 4.93004 10.7197 4.97475 10.6781C5.01945 10.6366 5.07208 10.6046 5.12948 10.5839C5.18687 10.5632 5.24785 10.5543 5.30876 10.5578H6.83901L7.21515 5.71917C7.22393 5.59975 7.27877 5.4884 7.36809 5.40865C7.45742 5.3289 7.57424 5.28697 7.69389 5.29173H10.0448C10.1162 5.28812 10.1876 5.3 10.254 5.32656C10.3204 5.35312 10.3803 5.39373 10.4295 5.44561C10.4727 5.49874 10.5036 5.56082 10.5199 5.62736C10.5361 5.6939 10.5374 5.76322 10.5236 5.83031L10.1474 10.5749H14.2166L14.5928 5.73627C14.595 5.67563 14.6091 5.61602 14.6344 5.56086C14.6597 5.50569 14.6955 5.45604 14.74 5.41475C14.7845 5.37347 14.8366 5.34135 14.8935 5.32024C14.9504 5.29913 15.0109 5.28944 15.0715 5.29173H17.4225C17.4939 5.28812 17.5653 5.3 17.6317 5.32656C17.6981 5.35312 17.7579 5.39373 17.8072 5.44561C17.8504 5.49874 17.8813 5.56082 17.8975 5.62736C17.9138 5.6939 17.915 5.76322 17.9012 5.83031L17.525 10.5749H19.2348C19.3008 10.5722 19.3667 10.5829 19.4284 10.6064C19.4901 10.6299 19.5464 10.6657 19.5939 10.7117C19.6409 10.7613 19.6761 10.8209 19.6968 10.886C19.7176 10.9512 19.7233 11.0202 19.7136 11.0878L19.5768 13.4388ZM27.9974 22.9194H24.6462V18.3458L19.876 9.14725H23.6973L26.3474 14.7553L28.9976 9.14725H32.7762L27.9974 18.3458V22.9194ZM43.2656 20.4488C42.7964 21.2732 42.0987 21.9442 41.2566 22.3808C40.3647 22.8429 39.3715 23.0751 38.3671 23.0562C37.3574 23.0743 36.3588 22.8423 35.4605 22.3808C34.6159 21.9447 33.9153 21.2738 33.443 20.4488C32.9411 19.5423 32.6902 18.5182 32.7163 17.4824C32.6929 16.4522 32.9437 15.4344 33.443 14.533C33.9148 13.7055 34.6153 13.0317 35.4605 12.5924C36.361 12.1379 37.3585 11.9091 38.3671 11.9256C39.3703 11.908 40.3625 12.137 41.2566 12.5924C42.0993 13.0322 42.7969 13.7061 43.2656 14.533C43.7664 15.4369 44.0172 16.4579 43.9922 17.4909C44.0168 18.5239 43.766 19.5448 43.2656 20.4488ZM48.7283 22.9194L43.958 9.14725H47.5229L50.8912 19.5084L54.2594 9.14725H57.8243L53.0027 22.9194H48.7283ZM68.3137 20.4488C67.8456 21.2711 67.1513 21.9416 66.3132 22.3808C65.4117 22.825 64.4202 23.0561 63.4152 23.0561C62.4102 23.0561 61.4186 22.825 60.5171 22.3808C59.6708 21.9471 58.9696 21.2756 58.4996 20.4488C57.9951 19.543 57.7413 18.519 57.7644 17.4824C57.744 16.4515 57.9977 15.4337 58.4996 14.533C58.969 13.7037 59.6702 13.0293 60.5171 12.5924C61.4203 12.1538 62.4112 11.9259 63.4152 11.9259C64.4192 11.9259 65.4101 12.1538 66.3132 12.5924C67.1516 13.0351 67.8457 13.7085 68.3137 14.533C68.8171 15.4362 69.0708 16.4572 69.0489 17.4909C69.0704 18.5246 68.8167 19.5455 68.3137 20.4488ZM76.153 22.9194H74.6569C73.5832 22.9837 72.5236 22.6488 71.6819 21.9791C71.2949 21.5615 71.0005 21.067 70.8178 20.5278C70.6351 19.9886 70.5684 19.4169 70.6219 18.8502V14.8579H69.16V12.0539H70.6219V9.40372H73.9559V12.0539H76.1359V14.8579H73.9559V18.91C73.9385 19.0697 73.9529 19.2313 73.9984 19.3854C74.0439 19.5395 74.1195 19.683 74.2209 19.8077C74.4668 19.9904 74.7703 20.0784 75.0758 20.0556H76.1273L76.153 22.9194ZM87.2664 20.4488C86.7972 21.2732 86.0995 21.9442 85.2575 22.3808C84.3655 22.8429 83.3723 23.0751 82.368 23.0562C81.3583 23.0733 80.36 22.8413 79.4614 22.3808C78.6167 21.9447 77.9161 21.2738 77.4438 20.4488C76.9419 19.5423 76.6911 18.5182 76.7172 17.4824C76.6833 16.4553 76.9222 15.4377 77.4096 14.533C77.8814 13.7055 78.5819 13.0317 79.4272 12.5924C80.328 12.1389 81.3253 11.9101 82.3338 11.9256C83.337 11.908 84.3292 12.137 85.2233 12.5924C86.0533 13.0375 86.7386 13.7109 87.1981 14.533C87.6989 15.4369 87.9497 16.4579 87.9247 17.4909C87.9493 18.5239 87.6985 19.5448 87.1981 20.4488H87.2664ZM91.8144 22.9194H88.3949V19.5854H91.8144V22.9194ZM103.629 20.4488C103.255 21.243 102.662 21.9135 101.919 22.3808C101.201 22.8347 100.366 23.0694 99.5169 23.0562C98.7623 23.078 98.0174 22.8821 97.3712 22.492C96.7843 22.1292 96.3267 21.5908 96.0632 20.9532V28.1H92.7377V12.0539H96.0632V14.0201C96.3267 13.3825 96.7843 12.844 97.3712 12.4813C98.0174 12.0912 98.7623 11.8953 99.5169 11.9171C100.365 11.9052 101.199 12.1366 101.919 12.5839C102.66 13.0534 103.253 13.7233 103.629 14.5159C104.058 15.4446 104.269 16.4595 104.244 17.4824C104.257 18.5078 104.035 19.5226 103.595 20.4488H103.629ZM115.409 18.0893H107.869C107.848 18.7339 108.071 19.3627 108.493 19.8504C108.858 20.1656 109.317 20.3529 109.798 20.3837C110.28 20.4146 110.758 20.2873 111.16 20.0214C111.479 19.786 111.705 19.4476 111.802 19.0639H115.332C115.198 19.8164 114.874 20.5224 114.392 21.1156C113.903 21.7288 113.276 22.218 112.562 22.5433C111.72 22.9072 110.807 23.0813 109.89 23.0532C108.972 23.0252 108.072 22.7956 107.254 22.3808C106.435 21.9367 105.761 21.266 105.313 20.4488C104.832 19.5355 104.59 18.5146 104.612 17.4824C104.587 16.4507 104.825 15.4297 105.304 14.5159C105.75 13.697 106.424 13.0256 107.245 12.5839C108.124 12.1276 109.102 11.8984 110.092 11.9171C111.078 11.8924 112.055 12.1189 112.93 12.5753C113.732 13 114.394 13.6471 114.836 14.439C115.293 15.2836 115.522 16.2319 115.503 17.1917C115.499 17.4931 115.467 17.7936 115.409 18.0893Z" fill="#F34C60"/>
<path d="M110.075 14.533C109.516 14.5153 108.972 14.711 108.553 15.0802C108.125 15.503 107.879 16.0769 107.869 16.6788H112.144C112.173 16.3852 112.137 16.0887 112.038 15.8108C111.939 15.5328 111.779 15.2803 111.571 15.0716C111.161 14.7048 110.624 14.5117 110.075 14.533Z" fill="#F34C60"/>
<path d="M9.66022 17.2857H13.7295L13.9859 13.8833H9.93378L9.66022 17.2857Z" fill="#F34C60"/>
</g>
<defs>
<clipPath id="clip0">
<rect width="119.684" height="40" fill="white"/>
</clipPath>
</defs>
</svg>
